<svg width="50" height="50" viewBox="0 0 50 50" fill="none" xmlns="http://www.w3.org/2000/svg">
<g id="agile 1">
<g id="Group">
<path id="Vector" d="M41.1133 35.2533L35.1623 35.2535C33.6443 37.6171 31.6208 39.6177 29.2424 41.1141H41.1133V45.5072L50.0001 38.1844L41.1133 30.8602V35.2533Z" fill="#131414"/>
<path id="Vector_2" d="M19.2519 41.1085C28.0988 41.0481 35.2539 33.8623 35.2539 25.0007C35.2539 16.5963 28.817 9.70229 20.6055 8.96128V4.49292L11.8164 11.8171L20.6055 19.1399V14.8949C25.5615 15.6133 29.3945 19.8489 29.3945 25.0007C29.3945 30.6541 24.794 35.2546 19.1406 35.2546H0V41.114H19.2585C19.2556 41.1123 19.2547 41.1103 19.2519 41.1085Z" fill="#131414"/>
<path id="Vector_3" d="M11.9872 32.325C10.0798 30.4617 8.88672 27.8711 8.88672 25.0008C8.88672 21.5962 10.5729 18.5949 13.1352 16.729L8.53193 12.8934C5.16436 15.8468 3.02734 20.1698 3.02734 25.0008C3.02734 27.6477 3.70703 30.1218 4.83799 32.325H11.9872Z" fill="#131414"/>
</g>
</g>
</svg>
