<svg width="50" height="50" viewBox="0 0 50 50" fill="none" xmlns="http://www.w3.org/2000/svg">
<g id="customer-review 2">
<path id="Vector" d="M17.5313 32.4375C15.1042 34.3437 13.5417 37.3021 13.5417 40.625V43.75H7.29175C5.56258 43.75 4.16675 42.3542 4.16675 40.625V38.5417C4.16675 34.5104 7.42717 31.25 11.4584 31.25H13.5417C15.0209 31.25 16.3855 31.6875 17.5313 32.4375Z" fill="#131414"/>
<path id="Vector_2" d="M37.5 31.25C40.0888 31.25 42.1875 29.1513 42.1875 26.5625C42.1875 23.9737 40.0888 21.875 37.5 21.875C34.9112 21.875 32.8125 23.9737 32.8125 26.5625C32.8125 29.1513 34.9112 31.25 37.5 31.25Z" fill="#131414"/>
<path id="Vector_3" d="M12.5 31.25C15.0888 31.25 17.1875 29.1513 17.1875 26.5625C17.1875 23.9737 15.0888 21.875 12.5 21.875C9.91116 21.875 7.8125 23.9737 7.8125 26.5625C7.8125 29.1513 9.91116 31.25 12.5 31.25Z" fill="#131414"/>
<path id="Vector_4" d="M45.8333 38.5417V40.625C45.8333 42.3542 44.4375 43.75 42.7083 43.75H36.4583V40.625C36.4583 37.3021 34.8958 34.3437 32.4688 32.4375C33.6146 31.6875 34.9792 31.25 36.4583 31.25H38.5417C42.5729 31.25 45.8333 34.5104 45.8333 38.5417Z" fill="#131414"/>
<path id="Vector_5" d="M24.9999 32.2917C28.1641 32.2917 30.7291 29.7267 30.7291 26.5625C30.7291 23.3984 28.1641 20.8334 24.9999 20.8334C21.8358 20.8334 19.2708 23.3984 19.2708 26.5625C19.2708 29.7267 21.8358 32.2917 24.9999 32.2917Z" fill="#131414"/>
<path id="Vector_6" d="M26.0417 32.2916H23.9583C19.3635 32.2916 15.625 36.0302 15.625 40.625V43.75C15.625 45.4729 17.0271 46.875 18.75 46.875H31.25C32.9729 46.875 34.375 45.4729 34.375 43.75V40.625C34.375 36.0302 30.6365 32.2916 26.0417 32.2916Z" fill="#131414"/>
<path id="Vector_7" d="M40.1041 17.3792L37.5905 18.273C36.877 18.5261 36.1322 17.9855 36.153 17.2282L36.226 14.5615L34.5989 12.4469C34.1374 11.8469 34.4218 10.9709 35.1478 10.7563L37.7072 10.0021L39.2155 7.8011C39.6437 7.17714 40.5645 7.17714 40.9926 7.8011L42.5009 10.0021L45.0603 10.7563C45.7864 10.9699 46.0707 11.8469 45.6093 12.4469L43.9822 14.5615L44.0551 17.2282C44.0759 17.9844 43.3301 18.5261 42.6176 18.273L40.1041 17.3792Z" fill="#131414"/>
<path id="Vector_8" d="M9.89582 17.3792L7.38229 18.273C6.66874 18.5261 5.92395 17.9855 5.94479 17.2282L6.0177 14.5615L4.39062 12.4469C3.92916 11.8469 4.21354 10.9709 4.93958 10.7563L7.49895 10.0021L9.00728 7.8011C9.43541 7.17714 10.3562 7.17714 10.7844 7.8011L12.2927 10.0021L14.8521 10.7563C15.5781 10.9699 15.8625 11.8469 15.401 12.4469L13.7739 14.5615L13.8469 17.2282C13.8677 17.9844 13.1219 18.5261 12.4094 18.273L9.89582 17.3792Z" fill="#131414"/>
<path id="Vector_9" d="M25.0001 15.0354L22.0199 16.0948C21.174 16.3958 20.2907 15.7531 20.3157 14.8562L20.4022 11.6948L18.473 9.18746C17.9261 8.476 18.2636 7.43746 19.124 7.18329L22.1584 6.2885L23.947 3.67913C24.4542 2.9385 25.547 2.9385 26.0542 3.67913L27.8428 6.2885L30.8772 7.18329C31.7376 7.43746 32.0751 8.476 31.5282 9.18746L29.599 11.6948L29.6855 14.8562C29.7105 15.7531 28.8261 16.3958 27.9813 16.0948L25.0001 15.0354Z" fill="#131414"/>
</g>
</svg>
