<svg width="50" height="50" viewBox="0 0 50 50" fill="none" xmlns="http://www.w3.org/2000/svg">
<g id="peace 2" clip-path="url(#clip0_238_307)">
<g id="Group">
<g id="Group_2">
<path id="Vector" d="M8.80573 30.5676L19.7506 19.6228L22.3649 22.2401C23.5975 23.4789 25.2382 24.1615 26.9841 24.1615C28.7301 24.1615 30.3708 23.4789 31.604 22.2396C34.1399 19.6908 34.1399 15.544 31.604 12.9952L27.5049 8.88528L29.5411 7.09456C34.6632 2.60598 42.4542 3.11956 46.9427 8.24163C51.4313 13.3637 50.9177 21.1547 45.7957 25.6433L42.8701 28.3472L39.6222 25.0993C37.7326 23.2097 34.6579 23.2097 32.7683 25.0993C31.8672 26.0004 31.3657 27.1942 31.3503 28.466C30.13 28.4817 28.9147 28.9529 27.9858 29.8818C27.0564 30.8113 26.5851 32.0275 26.5701 33.2483C25.3492 33.2633 24.133 33.7346 23.2035 34.6641C21.3139 36.5537 21.3138 39.6284 23.2034 41.5181L25.8047 44.1193L23.6048 46.1525C22.104 47.4677 19.8211 47.3172 18.5058 45.8163C17.1906 44.3156 17.3411 42.0326 18.842 40.7175C17.3412 42.0327 15.0583 41.8823 13.7431 40.3814C12.4279 38.8806 12.5784 36.5977 14.0793 35.2825L14.0791 35.2823C12.5783 36.5976 10.2954 36.4471 8.98015 34.9462C7.85309 33.6601 7.91833 32.0364 8.80573 30.5676Z" fill="#131414"/>
</g>
<g id="Group_3">
<path id="Vector_2" d="M3.61178 6.56345C8.4276 1.74773 16.2354 1.74773 21.0512 6.56345L29.5272 15.0619C30.5394 16.0793 30.8504 17.6453 30.3165 18.9752C29.7356 20.4219 28.2396 21.3483 26.685 21.2192C25.8278 21.148 25.0202 20.7629 24.418 20.1501L19.7518 15.4786L7.41959 27.8106L3.61188 24.0028C-1.20394 19.1871 -1.20394 11.3792 3.61178 6.56345Z" fill="#131414"/>
<g id="Group_4">
<path id="Vector_3" d="M39.0182 34.0601L34.8397 29.8817C34.4777 29.5197 34.2783 29.0383 34.2783 28.5263C34.2783 28.0143 34.4777 27.533 34.8397 27.1709C35.2134 26.7973 35.7044 26.6105 36.1951 26.6105C36.686 26.6105 37.1768 26.7973 37.5505 27.171L41.7288 31.3493C42.4732 32.0938 42.4756 33.3031 41.7368 34.0512C41.7246 34.0632 41.712 34.0746 41.6997 34.0865C41.3411 34.431 40.8723 34.6215 40.3734 34.6215C39.8615 34.6215 39.3802 34.4221 39.0182 34.0601Z" fill="#131414"/>
<path id="Vector_4" d="M34.2356 38.8427L30.0572 34.6643C29.6952 34.3021 29.4958 33.8209 29.4958 33.3089C29.4958 32.7969 29.6953 32.3156 30.0572 31.9535C30.4193 31.5915 30.9005 31.3921 31.4125 31.3921C31.9246 31.3921 32.4059 31.5915 32.7679 31.9535L36.9463 36.1319C37.3083 36.494 37.5078 36.9753 37.5078 37.4873C37.5078 37.9965 37.3103 38.475 36.9521 38.8364C36.9442 38.8442 36.936 38.8516 36.9281 38.8593C36.1792 39.589 34.9771 39.5841 34.2356 38.8427Z" fill="#131414"/>
<path id="Vector_5" d="M29.4533 43.6249L25.2748 39.4466C24.5276 38.6992 24.5275 37.4831 25.2748 36.7358C25.637 36.3738 26.1182 36.1743 26.6302 36.1743C27.1422 36.1743 27.6236 36.3737 27.9856 36.7357L32.164 40.9142C32.526 41.2763 32.7254 41.7575 32.7254 42.2695C32.7254 42.7801 32.527 43.2601 32.1668 43.6218C32.1629 43.6257 32.1589 43.6292 32.155 43.633C31.4069 44.3717 30.1978 44.3693 29.4533 43.6249Z" fill="#131414"/>
</g>
</g>
</g>
</g>
<defs>
<clipPath id="clip0_238_307">
<rect width="50" height="50" fill="white"/>
</clipPath>
</defs>
</svg>
