<svg aria-hidden="true" style="position: absolute; width: 0; height: 0; overflow: hidden;"
    version="1.1" xmlns="http://www.w3.org/2000/svg" xmlns:xlink="http://www.w3.org/1999/xlink">
    <defs>
        <symbol id="icon-arrow-left" viewBox="0 0 32 32">
            <path
                d="M24.745 14.409h-15.322l4.69-5.633c0.219-0.264 0.325-0.604 0.293-0.946s-0.197-0.657-0.461-0.876c-0.264-0.219-0.604-0.325-0.946-0.293s-0.657 0.197-0.876 0.461l-6.46 7.752c-0.043 0.062-0.082 0.126-0.116 0.194 0 0.065 0 0.103-0.090 0.168-0.059 0.148-0.089 0.306-0.090 0.465 0.001 0.159 0.032 0.317 0.090 0.465 0 0.065 0 0.103 0.090 0.168 0.034 0.067 0.073 0.132 0.116 0.194l6.46 7.752c0.121 0.146 0.274 0.263 0.445 0.343s0.359 0.122 0.549 0.122c0.302 0.001 0.594-0.105 0.827-0.297 0.131-0.109 0.239-0.242 0.318-0.392s0.128-0.315 0.144-0.484-0.002-0.34-0.053-0.502c-0.050-0.162-0.132-0.313-0.241-0.444l-4.69-5.633h15.322c0.343 0 0.671-0.136 0.914-0.378s0.378-0.571 0.378-0.914c0-0.343-0.136-0.671-0.378-0.914s-0.571-0.378-0.914-0.378z"></path>
        </symbol>
        <symbol id="icon-arrow-right" viewBox="0 0 32 32">
            <path
                d="M7.255 14.409h15.322l-4.69-5.633c-0.219-0.264-0.325-0.604-0.293-0.946s0.197-0.657 0.461-0.876c0.264-0.219 0.604-0.325 0.946-0.293s0.657 0.197 0.876 0.461l6.46 7.752c0.043 0.062 0.082 0.126 0.116 0.194 0 0.065 0 0.103 0.090 0.168 0.059 0.148 0.089 0.306 0.090 0.465-0.001 0.159-0.032 0.317-0.090 0.465 0 0.065 0 0.103-0.090 0.168-0.034 0.067-0.073 0.132-0.116 0.194l-6.46 7.752c-0.121 0.146-0.274 0.263-0.445 0.343s-0.36 0.122-0.549 0.122c-0.302 0.001-0.594-0.105-0.827-0.297-0.131-0.109-0.239-0.242-0.318-0.392s-0.128-0.315-0.144-0.484 0.002-0.34 0.053-0.502c0.050-0.162 0.132-0.313 0.241-0.444l4.69-5.633h-15.322c-0.343 0-0.671-0.136-0.914-0.378s-0.378-0.571-0.378-0.914c0-0.343 0.136-0.671 0.378-0.914s0.571-0.378 0.914-0.378z"></path>
        </symbol>
        <symbol id="icon-check" viewBox="0 0 44 32">
            <path
                d="M12.999 25.8l-8.167-8.167c-0.214-0.216-0.468-0.388-0.748-0.505s-0.581-0.177-0.885-0.177-0.605 0.060-0.885 0.177c-0.28 0.117-0.535 0.289-0.748 0.505-0.216 0.214-0.388 0.468-0.505 0.748s-0.177 0.581-0.177 0.885 0.060 0.605 0.177 0.885c0.117 0.28 0.289 0.535 0.505 0.748l9.777 9.777c0.91 0.91 2.38 0.91 3.29 0l24.733-24.71c0.216-0.214 0.388-0.468 0.505-0.748s0.178-0.581 0.178-0.885c0-0.304-0.060-0.605-0.178-0.885s-0.289-0.535-0.505-0.748c-0.214-0.216-0.468-0.388-0.748-0.505s-0.581-0.177-0.885-0.177-0.605 0.060-0.885 0.177c-0.28 0.117-0.535 0.289-0.748 0.505l-23.1 23.1z"></path>
        </symbol>
        <symbol id="icon-linkedin" viewBox="0 0 34 32">
            <path
                d="M8.004 3.752c-0 0.895-0.356 1.753-0.989 2.385s-1.491 0.988-2.386 0.987c-0.895-0-1.753-0.356-2.385-0.989s-0.988-1.491-0.987-2.386c0-0.895 0.356-1.753 0.989-2.385s1.491-0.988 2.386-0.987c0.895 0 1.753 0.356 2.385 0.989s0.988 1.491 0.987 2.386zM8.105 9.623h-6.748v21.122h6.748v-21.122zM18.767 9.623h-6.714v21.122h6.647v-11.084c0-6.175 8.047-6.748 8.047 0v11.084h6.664v-13.378c0-10.409-11.911-10.021-14.711-4.909l0.067-2.834z"></path>
        </symbol>
        <symbol id="icon-logo" viewBox="0 0 128 32">
            <path d="M91.042 15.662v3.949h1.183v-7.897h-1.183v3.948z"></path>
            <path d="M105.605 12.423v0.668h1.183v-1.336h-1.183v0.668z"></path>
            <path
                d="M58.895 12.184c-0.526 0.081-0.902 0.292-1.11 0.624-0.090 0.146-2.635 6.463-2.712 6.735-0.021 0.065 0.032 0.069 0.689 0.069h0.71l0.603-1.531c1.53-3.855 1.755-4.402 1.844-4.491 0.126-0.126 0.355-0.126 0.477-0.004 0.053 0.053 0.179 0.32 0.285 0.599s0.612 1.608 1.126 2.956l0.93 2.45 0.726 0.012c0.572 0.008 0.718 0 0.706-0.040-1.060-2.794-2.554-6.65-2.623-6.755-0.122-0.19-0.363-0.401-0.575-0.49-0.261-0.117-0.771-0.178-1.077-0.134z"></path>
            <path d="M41.72 15.966v3.645h1.305v-7.29h-1.305v3.645z"></path>
            <path
                d="M45.070 12.374c-0.053 0.024-0.139 0.101-0.183 0.162-0.086 0.113-0.086 0.138-0.098 3.345-0.012 3.499-0.012 3.462 0.208 3.624 0.114 0.085 0.151 0.085 1.917 0.085 1.738 0 1.815-0.004 2.15-0.089 1.518-0.401 2.244-1.539 2.244-3.535 0-2.078-0.816-3.276-2.444-3.58-0.444-0.085-3.635-0.093-3.794-0.012zM48.717 13.678c0.905 0.235 1.289 0.915 1.285 2.28-0.005 0.701-0.078 1.114-0.265 1.494-0.22 0.441-0.539 0.684-1.060 0.802-0.208 0.049-0.502 0.061-1.416 0.053l-1.155-0.012-0.012-2.288c-0.004-1.259 0-2.312 0.012-2.341 0.028-0.077 2.289-0.069 2.611 0.012z"></path>
            <path
                d="M63.758 14.982c0.016 2.365 0.024 2.693 0.086 2.908 0.261 0.911 0.852 1.45 1.795 1.644 0.334 0.069 0.571 0.077 2.080 0.077h1.701v-1.292l-3.447-0.024-0.253-0.113c-0.297-0.138-0.424-0.263-0.55-0.535l-0.094-0.203-0.013-2.563-0.012-2.559h-1.305l0.012 2.661z"></path>
            <path
                d="M77.436 12.362c-1.056 0.219-1.611 0.919-1.611 2.045 0 1.089 0.494 1.741 1.53 2.029 0.196 0.057 0.518 0.073 1.652 0.093 1.31 0.024 1.42 0.032 1.591 0.109 0.228 0.105 0.436 0.336 0.473 0.522 0.012 0.081 0.016 0.251 0.008 0.381-0.024 0.328-0.171 0.543-0.453 0.676l-0.212 0.097h-4.467v1.296h2.24c1.811 0 2.301-0.012 2.558-0.061 0.841-0.158 1.403-0.676 1.591-1.462 0.049-0.211 0.061-0.397 0.045-0.745-0.041-0.875-0.347-1.409-0.996-1.737-0.481-0.239-0.596-0.255-2.154-0.284l-1.428-0.024-0.245-0.121c-0.31-0.154-0.428-0.356-0.428-0.721 0-0.32 0.118-0.563 0.338-0.709l0.167-0.109 4.206-0.041 0.012-0.64 0.012-0.636-2.134 0.004c-1.175 0.004-2.207 0.020-2.297 0.036z"></path>
            <path
                d="M101.73 13.212v0.688h-0.82l0.012 0.555 0.012 0.559 0.796 0.024v1.567c0 1.664 0.024 1.928 0.204 2.296 0.123 0.247 0.388 0.494 0.653 0.595 0.196 0.077 0.322 0.089 1.052 0.105l0.824 0.016v-1.053l-0.559-0.016c-0.665-0.016-0.791-0.061-0.914-0.328-0.069-0.158-0.078-0.283-0.078-1.677v-1.511l0.788-0.008 0.783-0.012 0.012-0.559 0.012-0.555h-1.595l-0.008-0.68-0.012-0.676-1.162-0.024v0.693z"></path>
            <path
                d="M85.391 13.941c-0.918 0.182-1.55 0.798-1.795 1.741-0.147 0.575-0.147 1.575 0 2.15 0.237 0.915 0.861 1.539 1.725 1.717 0.388 0.085 2.121 0.081 2.513 0 0.584-0.121 1.085-0.462 1.399-0.94 0.457-0.705 0.587-2.077 0.294-3.037-0.274-0.879-0.857-1.438-1.693-1.612-0.31-0.065-2.138-0.081-2.444-0.020zM87.713 15.12c0.318 0.117 0.567 0.397 0.685 0.782 0.131 0.417 0.135 1.292 0.004 1.709-0.11 0.344-0.327 0.607-0.612 0.749-0.192 0.093-0.224 0.097-1.195 0.097-0.963 0-1.008-0.004-1.212-0.097-0.273-0.121-0.465-0.332-0.583-0.636-0.078-0.198-0.098-0.34-0.114-0.818-0.028-0.887 0.090-1.3 0.449-1.604 0.274-0.235 0.425-0.263 1.448-0.263 0.82-0.004 0.93 0.004 1.13 0.081z"></path>
            <path
                d="M93.828 15.853c0.016 2.122 0.016 2.126 0.257 2.62 0.138 0.279 0.538 0.688 0.816 0.826 0.11 0.057 0.338 0.146 0.506 0.198 0.294 0.089 0.359 0.093 1.489 0.093 1.179 0 1.183 0 1.509-0.109 0.791-0.267 1.301-0.834 1.452-1.628 0.021-0.109 0.037-1.041 0.037-2.073v-1.879h-1.138l-0.012 1.871-0.012 1.875-0.102 0.198c-0.119 0.231-0.27 0.364-0.571 0.506-0.22 0.105-0.237 0.105-1.183 0.105-0.894 0-0.971-0.004-1.147-0.085-0.257-0.121-0.502-0.348-0.616-0.575-0.094-0.19-0.094-0.203-0.106-2.045l-0.012-1.851h-1.183l0.017 1.952z"></path>
            <path d="M105.605 16.756v2.855h1.142v-5.71h-1.142v2.855z"></path>
            <path
                d="M109.975 13.966c-0.885 0.19-1.456 0.765-1.725 1.737-0.073 0.275-0.090 0.429-0.090 1.053s0.017 0.778 0.090 1.053c0.265 0.964 0.783 1.498 1.668 1.725 0.265 0.065 0.453 0.077 1.318 0.077 1.11 0 1.383-0.041 1.865-0.271 0.506-0.243 0.93-0.814 1.121-1.511 0.082-0.3 0.094-0.437 0.094-1.073 0-0.838-0.049-1.081-0.31-1.632-0.298-0.616-0.816-1.012-1.526-1.162-0.388-0.081-2.126-0.081-2.505 0.004zM112.496 15.177c0.253 0.138 0.408 0.328 0.543 0.664 0.082 0.202 0.090 0.296 0.090 0.915s-0.008 0.713-0.090 0.915c-0.143 0.356-0.298 0.539-0.567 0.668l-0.236 0.117h-2.003l-0.245-0.122c-0.444-0.227-0.624-0.62-0.657-1.438-0.024-0.595 0.045-0.988 0.224-1.312 0.122-0.215 0.4-0.437 0.636-0.506 0.069-0.024 0.567-0.036 1.106-0.032l0.979 0.008 0.22 0.121z"></path>
            <path
                d="M116.11 13.958c-0.168 0.073-0.298 0.227-0.347 0.393-0.024 0.081-0.041 1.154-0.041 2.697v2.563h1.143v-2.223c0-1.223 0.012-2.252 0.024-2.288 0.021-0.057 0.171-0.065 1.244-0.065 0.742 0 1.301 0.016 1.432 0.045 0.432 0.093 0.73 0.308 0.922 0.664l0.11 0.202 0.012 1.831 0.012 1.834h1.183l-0.012-1.916c-0.016-1.713-0.024-1.936-0.090-2.134-0.274-0.818-0.791-1.292-1.697-1.547-0.286-0.081-0.425-0.085-2.040-0.101-1.408-0.008-1.759 0-1.856 0.045z"></path>
            <path
                d="M124.432 13.941c-0.363 0.073-0.649 0.215-0.861 0.421-0.281 0.284-0.387 0.563-0.416 1.106-0.045 0.915 0.33 1.458 1.154 1.677 0.282 0.073 0.485 0.085 1.448 0.105 1.31 0.028 1.371 0.040 1.489 0.356 0.082 0.203 0.061 0.494-0.037 0.636-0.156 0.219-0.102 0.215-2.126 0.235l-1.877 0.020-0.012 0.559-0.012 0.559 1.991-0.012c1.938-0.016 1.999-0.016 2.236-0.105 0.53-0.194 0.857-0.571 0.983-1.134 0.078-0.348 0.061-0.794-0.041-1.13-0.082-0.259-0.371-0.587-0.64-0.725-0.404-0.198-0.591-0.227-1.873-0.255-0.869-0.016-1.228-0.040-1.297-0.077-0.241-0.134-0.33-0.563-0.179-0.859 0.138-0.283 0.147-0.283 2.101-0.283h1.742v-1.134l-1.803 0.004c-0.995 0.004-1.881 0.020-1.97 0.036z"></path>
            <path
                d="M70.427 18.141c-0.016 0.012-0.028 0.352-0.028 0.749v0.721h1.265v-1.498h-0.604c-0.334 0-0.62 0.012-0.632 0.028z"></path>
            <path
                d="M15.98 24.977v-17.591c0-0.168-0.136-0.305-0.305-0.305h-0.599c-0.168 0-0.305 0.137-0.305 0.305v17.591c0 0.169 0.136 0.305 0.305 0.305h0.599c0.168 0 0.305-0.136 0.305-0.305zM12.856 26.237c-1.868 0.62-3.586-1.502-3.267-3.989-2.016 0.921-4.319-0.712-4.266-3.18h4.68v0.875c-0.992 0.384-0.715 1.86 0.346 1.86 1.059 0 1.341-1.474 0.347-1.86v-0.875h1.611c0.098 0.252 0.297 0.452 0.55 0.55 0 1.297 0 5.094 0 6.62zM13.567 25.849c-0.006 0.005-0.011 0.011-0.017 0.015 0-2.088 0-4.163 0-6.247 0.36-0.14 0.616-0.487 0.616-0.896 0-1.061-1.475-1.339-1.859-0.347-0.958 0-3.92 0-4.803 0v-4.834c0.36-0.14 0.616-0.487 0.616-0.896 0-0.532-0.431-0.963-0.963-0.963s-0.963 0.431-0.963 0.963c0 0.409 0.257 0.757 0.616 0.896v4.834h-1.406c0.189-0.867 0.679-1.584 1.29-2.030-0.809-0.591-1.373-1.627-1.373-2.798 0-2.041 1.69-3.7 3.651-3.303v3.71c0.545 0 2.050 0 2.672 0 0.385 0.994 1.859 0.713 1.859-0.347 0-1.061-1.475-1.339-1.859-0.347h-1.978v-4.408c0.285-1.26 1.090-2.226 2.086-2.456-0.039-0.379-0.074-0.77-0.101-1.114-1.035 0.171-2.028 0.874-2.679 2.22-0.231 0.477-0.395 1.008-0.474 1.574-2.377-0.061-4.286 1.992-4.286 4.469 0 1.059 0.348 2.031 0.926 2.798-2.177 2.889-0.28 7.351 3.36 7.267 0.302 2.178 1.85 3.844 3.713 3.844 0.469 0 0.928-0.114 1.357-0.32v-1.288zM11.377 10.516c0 1.061 1.475 1.339 1.859 0.347h1.635c0 1.085 0 4.207 0 5.135h-4.491c-0.386-0.993-1.86-0.713-1.86 0.347 0 1.062 1.475 1.338 1.86 0.347h4.491c0 0.636 0 4.429 0 5.811h1.109c0-1.803 0-10.101 0-11.639 0-0.499 0-0.569 0-0.693h-2.745c-0.383-0.99-1.859-0.716-1.859 0.347zM28.076 16.344c-0.001-0.332-0.271-0.603-0.602-0.603h-0.245c-0.037 0-0.073 0.003-0.084 0.007-0.325 0.009-0.635 0.010-0.864-0.076-0.185-0.069-0.354-0.206-0.476-0.384-0.188-0.274-0.276-0.65-0.269-1.151 0.006-0.403 0.064-0.81 0.126-1.241 0.033-0.229 0.066-0.459 0.092-0.688 0.273-2.474-1.152-4.957-3.631-6.326-1.309-0.723-2.843-1.194-4.317-1.326-0.162-0.014-0.318 0.035-0.442 0.14-0.122 0.104-0.197 0.249-0.212 0.409s0.034 0.316 0.136 0.44c0.103 0.126 0.249 0.203 0.411 0.217 1.313 0.117 2.678 0.537 3.846 1.182 2.050 1.131 3.233 3.145 3.013 5.13-0.024 0.217-0.055 0.433-0.086 0.649-0.065 0.45-0.132 0.915-0.139 1.397-0.010 0.761 0.147 1.368 0.482 1.856 0.097 0.142 0.213 0.266 0.338 0.382-0.124 0.115-0.24 0.24-0.337 0.381-0.335 0.489-0.492 1.096-0.482 1.858 0.007 0.48 0.074 0.946 0.139 1.401 0.032 0.215 0.063 0.429 0.086 0.645 0.22 1.986-0.963 4-3.013 5.13-1.167 0.645-2.533 1.064-3.846 1.182-0.162 0.014-0.308 0.092-0.411 0.218-0.102 0.123-0.15 0.28-0.135 0.44 0.028 0.314 0.286 0.551 0.599 0.551 0.018 0 0.036-0 0.054-0.002 1.475-0.132 3.008-0.603 4.318-1.326 2.479-1.368 3.904-3.851 3.631-6.327-0.026-0.229-0.058-0.459-0.092-0.691-0.062-0.43-0.12-0.836-0.126-1.237-0.007-0.502 0.081-0.879 0.269-1.153 0.122-0.178 0.291-0.314 0.476-0.383 0.164-0.062 0.373-0.078 0.592-0.080 0.010 0 0.022 0.001 0.032 0.001 0.014 0 0.027-0.001 0.041-0.001 0.059 0 0.118 0.001 0.178 0.002 0.034 0.006 0.070 0.009 0.106 0.009h0.245c0.331 0 0.601-0.271 0.602-0.603 0-0.005-0.001-0.009-0.001-0.013s0.001-0.009 0.001-0.013zM15.049 27.171c-0.103-0.126-0.249-0.203-0.411-0.218-0.882-0.079-1.787-0.297-2.641-0.626-0.025 0.041-0.047 0.084-0.075 0.123-0.222 0.318-0.421 0.617-0.639 0.896 1.039 0.432 2.159 0.715 3.247 0.812 0.018 0.002 0.036 0.002 0.054 0.002 0.313 0 0.571-0.237 0.599-0.551 0.014-0.16-0.034-0.316-0.135-0.44zM10.559 7.081c0.077-0.047 0.154-0.095 0.234-0.139 1.168-0.645 2.533-1.064 3.846-1.182 0.162-0.014 0.307-0.092 0.411-0.217 0.102-0.124 0.15-0.28 0.136-0.44s-0.089-0.305-0.212-0.409c-0.124-0.105-0.28-0.154-0.442-0.14-1.372 0.123-2.792 0.542-4.038 1.182 0.152 0.434 0.188 0.898 0.066 1.345zM15.98 31.028c-8.225 0-14.917-6.694-14.917-14.921s6.692-14.921 14.917-14.921c8.225 0 14.917 6.694 14.917 14.921s-6.692 14.921-14.917 14.921zM15.98 0.222c-8.757 0-15.881 7.126-15.881 15.885s7.124 15.885 15.881 15.885c8.757 0 15.881-7.126 15.881-15.885s-7.124-15.885-15.881-15.885z"></path>
        </symbol>
        <symbol id="icon-menu-arrow" viewBox="0 0 32 32">
            <path stroke-linejoin="round" stroke-linecap="round" stroke-miterlimit="4"
                stroke-width="2.4" d="M9.333 13.333l6.667 6.667 6.667-6.667"></path>
        </symbol>
        <symbol id="icon-offer-1" viewBox="0 0 32 32">
            <path
                d="M17 2h-12c-1.657 0-3 1.343-3 3v22c0 1.657 1.343 3 3 3h12c1.657 0 3-1.343 3-3v-22c0-1.657-1.343-3-3-3zM19 26.5c0 1.378-1.121 2.5-2.5 2.5h-11c-1.378 0-2.5-1.122-2.5-2.5v-21c0-1.378 1.122-2.5 2.5-2.5h11c1.379 0 2.5 1.122 2.5 2.5v21z"></path>
            <path
                d="M16.5 4h-3.5c0 1.105-0.895 2-2 2s-2-0.895-2-2h-3.5c-0.827 0-1.5 0.673-1.5 1.5v21c0 0.827 0.673 1.5 1.5 1.5h11c0.827 0 1.5-0.673 1.5-1.5v-21c0-0.827-0.673-1.5-1.5-1.5zM9.829 19.124c0.208 0.182 0.229 0.498 0.047 0.706-0.099 0.113-0.237 0.171-0.376 0.171-0.117 0-0.234-0.041-0.329-0.124l-4-3.5c-0.109-0.095-0.171-0.232-0.171-0.376s0.062-0.281 0.171-0.376l4-3.5c0.208-0.182 0.523-0.162 0.706 0.047 0.182 0.208 0.161 0.523-0.047 0.706l-3.57 3.124 3.57 3.124zM16.829 16.376l-4 3.5c-0.095 0.083-0.212 0.124-0.329 0.124-0.139 0-0.277-0.058-0.376-0.171-0.182-0.208-0.161-0.523 0.047-0.706l3.57-3.124-3.57-3.124c-0.208-0.182-0.229-0.498-0.047-0.706 0.182-0.209 0.498-0.229 0.706-0.047l4 3.5c0.109 0.095 0.171 0.232 0.171 0.376s-0.062 0.281-0.171 0.376z"></path>
            <path
                d="M29.491 17.897l-1.409-0.795c0.055-0.372 0.082-0.74 0.082-1.102s-0.027-0.73-0.082-1.102l1.409-0.795c0.234-0.132 0.405-0.353 0.475-0.612s0.032-0.536-0.104-0.768l-2.047-3.464c-0.276-0.468-0.876-0.63-1.353-0.362l-1.434 0.809c-0.604-0.465-1.274-0.845-1.981-1.125v-1.581c0-0.552-0.447-1-1-1h-1.047v6c2.209 0 4 1.791 4 4s-1.791 4-4 4v6h1.047c0.553 0 1-0.448 1-1v-1.581c0.707-0.281 1.377-0.661 1.981-1.125l1.434 0.809c0.477 0.268 1.076 0.106 1.353-0.362l2.047-3.464c0.137-0.231 0.174-0.508 0.104-0.768s-0.24-0.48-0.475-0.612z"></path>
        </symbol>
        <symbol id="icon-offer-2" viewBox="0 0 32 32">
            <path
                d="M9.654 10.866c0.085 0.085 0.138 0.204 0.138 0.333s-0.053 0.248-0.138 0.333-0.202 0.138-0.333 0.138c-0.129 0-0.248-0.053-0.333-0.138s-0.138-0.204-0.138-0.333c0-0.129 0.053-0.248 0.138-0.333s0.204-0.138 0.333-0.138c0.131 0 0.248 0.053 0.333 0.138zM9.321 20.332c-0.129 0-0.248 0.051-0.333 0.136-0.085 0.087-0.138 0.204-0.138 0.333 0 0.131 0.053 0.248 0.138 0.335 0.085 0.085 0.204 0.136 0.333 0.136 0.131 0 0.248-0.051 0.333-0.136 0.085-0.087 0.138-0.204 0.138-0.335 0-0.129-0.053-0.246-0.138-0.333-0.085-0.085-0.202-0.136-0.333-0.136zM9.321 15.529c-0.129 0-0.248 0.053-0.333 0.138s-0.138 0.204-0.138 0.333c0 0.131 0.053 0.248 0.138 0.333s0.204 0.138 0.333 0.138c0.131 0 0.248-0.053 0.333-0.138s0.138-0.202 0.138-0.333c0-0.129-0.053-0.248-0.138-0.333s-0.202-0.138-0.333-0.138zM13.934 19.887v7.542c0 0.834-0.338 1.591-0.886 2.137-0.548 0.547-1.304 0.886-2.138 0.886-0.836 0-1.591-0.338-2.138-0.886-0.547-0.546-0.886-1.302-0.886-2.137 0-0.671 0.216-1.288 0.583-1.788 0.378-0.514 0.912-0.905 1.532-1.1 0.282-0.087 0.438-0.384 0.351-0.666-0.089-0.28-0.386-0.438-0.668-0.349-0.84 0.264-1.564 0.79-2.073 1.484-0.206 0.28-0.376 0.584-0.505 0.911-0.151 0.049-0.305 0.091-0.464 0.121-0.227 0.044-0.466 0.067-0.713 0.067-1.031 0-1.966-0.418-2.641-1.093-0.677-0.677-1.095-1.611-1.095-2.641 0-0.276 0.030-0.544 0.087-0.801 0.055-0.255 0.134-0.498 0.237-0.724 0.011-0.021 0.021-0.043 0.030-0.066 0.104-0.276-0.034-0.583-0.31-0.687-0.634-0.243-1.191-0.773-1.591-1.483-0.406-0.723-0.647-1.629-0.647-2.614s0.241-1.891 0.647-2.611c0.401-0.713 0.957-1.24 1.591-1.483v-0.002c0.011-0.004 0.021-0.009 0.032-0.013 0.268-0.122 0.384-0.437 0.263-0.705-0.108-0.237-0.193-0.491-0.252-0.758-0.057-0.257-0.087-0.524-0.087-0.801 0-1.031 0.418-1.966 1.095-2.641 0.675-0.677 1.611-1.095 2.641-1.095 0.246 0 0.486 0.023 0.713 0.068 0.159 0.032 0.314 0.071 0.464 0.121 0.129 0.326 0.299 0.633 0.505 0.911 0.509 0.694 1.233 1.222 2.073 1.486 0.282 0.087 0.579-0.069 0.668-0.351 0.087-0.28-0.069-0.579-0.351-0.666-0.62-0.195-1.155-0.584-1.532-1.098-0.367-0.499-0.583-1.118-0.583-1.787v-0.002c0-0.834 0.338-1.589 0.886-2.137s1.302-0.886 2.138-0.886c0.834 0 1.591 0.338 2.138 0.886s0.886 1.304 0.886 2.138v7.542h-1.311v-0.916c0-0.294-0.239-0.533-0.533-0.533h-1.325c-0.078-0.211-0.2-0.399-0.356-0.554-0.278-0.278-0.663-0.45-1.088-0.45-0.423 0-0.808 0.172-1.086 0.45s-0.452 0.662-0.452 1.087c0 0.425 0.174 0.809 0.452 1.088s0.662 0.45 1.086 0.45c0.425 0 0.809-0.172 1.088-0.45 0.156-0.156 0.278-0.344 0.356-0.554h0.792v0.916c0 0.294 0.239 0.533 0.533 0.533h1.844v2.286h-3.169c-0.078-0.209-0.2-0.399-0.356-0.552-0.278-0.28-0.663-0.452-1.088-0.452-0.423 0-0.808 0.172-1.086 0.452-0.278 0.278-0.452 0.662-0.452 1.086 0 0.425 0.174 0.809 0.452 1.088s0.662 0.45 1.086 0.45c0.425 0 0.809-0.172 1.088-0.45 0.156-0.156 0.278-0.344 0.356-0.554h3.169v2.288h-1.844c-0.294 0-0.533 0.237-0.533 0.533v0.914h-0.792c-0.078-0.209-0.2-0.399-0.356-0.552-0.278-0.278-0.663-0.452-1.088-0.452-0.423 0-0.808 0.174-1.086 0.452s-0.452 0.662-0.452 1.086c0 0.425 0.174 0.809 0.452 1.088s0.662 0.45 1.086 0.45c0.425 0 0.809-0.172 1.088-0.45 0.156-0.156 0.278-0.344 0.356-0.553h1.325c0.294 0 0.533-0.239 0.533-0.535v-0.914h1.311v-0.002zM5.032 16c0-0.634 0.154-1.216 0.414-1.678 0.25-0.444 0.594-0.774 0.985-0.923 0.274-0.104 0.413-0.412 0.308-0.687s-0.412-0.413-0.687-0.308c-0.629 0.239-1.164 0.739-1.534 1.398-0.347 0.616-0.552 1.378-0.552 2.199 0 0.822 0.206 1.584 0.552 2.199 0.37 0.661 0.907 1.159 1.534 1.398 0.274 0.104 0.583-0.034 0.687-0.308s-0.034-0.583-0.308-0.687c-0.391-0.149-0.735-0.478-0.985-0.923-0.261-0.463-0.414-1.044-0.414-1.679zM31.959 14.57c-0.027-0.036-0.068-0.064-0.117-0.081l-1.921-0.624c-0.212-0.069-0.397-0.186-0.544-0.342-0.145-0.154-0.252-0.344-0.308-0.56-0.136-0.521-0.308-1.027-0.512-1.52-0.206-0.494-0.444-0.976-0.716-1.441-0.112-0.191-0.172-0.401-0.177-0.616-0.007-0.214 0.041-0.425 0.142-0.624l0.917-1.802c0.025-0.048 0.032-0.096 0.027-0.14-0.007-0.044-0.030-0.087-0.069-0.126l-1.828-1.828c-0.038-0.038-0.081-0.060-0.126-0.068-0.042-0.007-0.092 0.002-0.14 0.027l-1.8 0.916c-0.198 0.101-0.411 0.149-0.626 0.144-0.214-0.007-0.425-0.066-0.616-0.179-0.464-0.271-0.944-0.51-1.439-0.714-0.492-0.206-1.001-0.376-1.522-0.514-0.216-0.057-0.406-0.161-0.56-0.308-0.156-0.147-0.273-0.329-0.342-0.542l-0.624-1.923c-0.016-0.049-0.044-0.089-0.081-0.115s-0.083-0.042-0.136-0.042h-0.76v7.921c1.596 0.128 3.033 0.829 4.099 1.898 1.187 1.185 1.921 2.824 1.921 4.633 0 1.811-0.734 3.447-1.921 4.633-1.066 1.068-2.503 1.77-4.099 1.899v7.919h0.76c0.053 0 0.099-0.014 0.136-0.041s0.066-0.067 0.081-0.117l0.624-1.921c0.069-0.213 0.186-0.397 0.342-0.544 0.154-0.145 0.344-0.251 0.56-0.308 0.521-0.136 1.029-0.308 1.522-0.512 0.494-0.206 0.974-0.445 1.439-0.716 0.191-0.112 0.402-0.172 0.616-0.177 0.214-0.007 0.427 0.041 0.626 0.142l1.8 0.918c0.048 0.025 0.098 0.034 0.14 0.027 0.044-0.007 0.089-0.030 0.126-0.069l1.828-1.828c0.039-0.037 0.062-0.081 0.069-0.124 0.006-0.044-0.002-0.094-0.027-0.142l-0.917-1.8c-0.101-0.198-0.149-0.411-0.142-0.626 0.006-0.214 0.066-0.425 0.177-0.616 0.271-0.464 0.51-0.944 0.716-1.439 0.204-0.493 0.376-1.001 0.512-1.52 0.057-0.218 0.163-0.408 0.308-0.562 0.147-0.156 0.331-0.271 0.544-0.342l1.921-0.624c0.049-0.016 0.091-0.044 0.117-0.081s0.041-0.083 0.041-0.136v-2.585c0.001-0.057-0.014-0.104-0.041-0.142zM18.082 13.181v2.286h-4.148v1.066h4.148v2.288h-4.148v1.066h4.148v1.573c1.302-0.126 2.471-0.705 3.347-1.581 0.992-0.994 1.607-2.365 1.607-3.88s-0.615-2.886-1.607-3.878c-0.875-0.875-2.044-1.456-3.347-1.582v1.575h-4.148v1.066l4.148 0.001z"></path>
        </symbol>
        <symbol id="icon-offer-3" viewBox="0 0 32 32">
            <path
                d="M26.2 17.982c0.39 0.39 0.633 0.93 0.633 1.526 0 0.597-0.243 1.136-0.633 1.527-0.391 0.39-0.93 0.631-1.526 0.631-0.597 0-1.136-0.241-1.527-0.631-0.39-0.391-0.631-0.93-0.631-1.527 0-0.595 0.241-1.136 0.631-1.526 0.391-0.39 0.93-0.633 1.527-0.633 0.596 0 1.134 0.243 1.526 0.633zM32.001 19.054v0.909c0 0.271-0.168 0.503-0.427 0.586l-0.645 0.209c-0.202 0.066-0.346 0.214-0.402 0.418-0.129 0.454-0.31 0.886-0.535 1.29-0.103 0.184-0.106 0.391-0.011 0.579l0.308 0.606c0.124 0.241 0.078 0.523-0.113 0.716l-0.643 0.643c-0.191 0.191-0.473 0.236-0.716 0.113l-0.606-0.308c-0.188-0.097-0.395-0.094-0.579 0.011-0.404 0.225-0.836 0.406-1.29 0.533-0.204 0.059-0.353 0.202-0.416 0.404l-0.211 0.645c-0.083 0.259-0.314 0.425-0.586 0.425h-0.909c-0.271 0-0.503-0.167-0.586-0.425l-0.209-0.645c-0.066-0.202-0.214-0.346-0.418-0.404-0.454-0.128-0.886-0.308-1.29-0.533-0.184-0.103-0.391-0.108-0.579-0.011l-0.606 0.308c-0.241 0.123-0.522 0.078-0.716-0.113l-0.643-0.643c-0.191-0.193-0.236-0.475-0.113-0.716l0.308-0.606c0.097-0.188 0.094-0.395-0.011-0.579-0.225-0.404-0.406-0.836-0.533-1.29-0.059-0.204-0.202-0.352-0.404-0.418l-0.645-0.209c-0.259-0.083-0.425-0.316-0.425-0.586v-0.909c0-0.273 0.166-0.503 0.425-0.586l0.647-0.211c0.2-0.066 0.344-0.213 0.402-0.416 0.129-0.454 0.308-0.886 0.533-1.29 0.104-0.184 0.108-0.391 0.011-0.579l-0.308-0.606c-0.123-0.242-0.078-0.524 0.113-0.716l0.643-0.643c0.193-0.191 0.475-0.238 0.716-0.113l0.606 0.308c0.188 0.096 0.395 0.092 0.579-0.011 0.404-0.225 0.836-0.406 1.29-0.535 0.204-0.057 0.353-0.2 0.418-0.402l0.209-0.645c0.083-0.259 0.316-0.427 0.586-0.427h0.909c0.273 0 0.503 0.168 0.586 0.427l0.211 0.645c0.064 0.202 0.213 0.346 0.416 0.402 0.454 0.129 0.886 0.31 1.29 0.535 0.184 0.102 0.391 0.106 0.579 0.011l0.606-0.308c0.243-0.124 0.524-0.078 0.716 0.113l0.643 0.643c0.191 0.191 0.238 0.473 0.113 0.716l-0.308 0.606c-0.096 0.187-0.092 0.395 0.011 0.579 0.225 0.404 0.406 0.836 0.535 1.29 0.057 0.204 0.2 0.353 0.402 0.416l0.645 0.211c0.259 0.083 0.427 0.313 0.427 0.586zM27.864 19.508c0-0.881-0.356-1.677-0.934-2.255s-1.375-0.936-2.256-0.936c-0.882 0-1.679 0.358-2.257 0.936s-0.934 1.375-0.934 2.255c0 0.883 0.356 1.679 0.934 2.257s1.375 0.934 2.257 0.934c0.881 0 1.678-0.356 2.256-0.934s0.934-1.375 0.934-2.257zM17.739 26.332h-2.256l-0.687-1.917h-4.92l-0.686 1.917h-2.256c-0.285 0-0.517 0.231-0.517 0.516s0.232 0.518 0.517 0.518h10.804c0.285 0 0.518-0.232 0.518-0.518s-0.231-0.516-0.517-0.516zM16.339 18.771h-16.34v-12.52c0-0.889 0.728-1.616 1.617-1.616h21.441c0.889 0 1.617 0.726 1.617 1.616v4.899h-0.455c-0.719 0-1.346 0.457-1.568 1.141l-0.144 0.437c-0.377 0.121-0.744 0.273-1.097 0.456l-0.411-0.209c-0.639-0.326-1.407-0.206-1.915 0.303l-0.643 0.643c-0.509 0.507-0.629 1.274-0.303 1.915l0.209 0.411c-0.181 0.352-0.333 0.719-0.454 1.097l-0.439 0.142c-0.591 0.192-1.012 0.688-1.115 1.285zM6.498 11.961l3.419-1.91c0.248-0.138 0.338-0.452 0.2-0.7s-0.452-0.338-0.7-0.2l-4.22 2.356c-0.083 0.046-0.156 0.115-0.206 0.204-0.138 0.248-0.048 0.562 0.2 0.7l4.226 2.36c0.248 0.138 0.562 0.049 0.7-0.2 0.138-0.248 0.048-0.562-0.2-0.7l-3.419-1.91zM13.334 7.611c-0.278-0.064-0.554 0.11-0.618 0.388l-1.762 7.694c-0.064 0.276 0.11 0.552 0.386 0.616 0.278 0.064 0.554-0.11 0.618-0.388l1.763-7.693c0.064-0.278-0.11-0.554-0.386-0.618zM15.257 14.771l4.226-2.36c0.248-0.138 0.338-0.452 0.2-0.7-0.049-0.089-0.123-0.158-0.206-0.204l-4.22-2.356c-0.248-0.138-0.562-0.048-0.7 0.2s-0.048 0.562 0.2 0.7l3.419 1.91-3.419 1.91c-0.248 0.138-0.338 0.452-0.2 0.7 0.138 0.249 0.452 0.338 0.7 0.2zM17.456 21.531c-0.684-0.221-1.139-0.849-1.139-1.568v-0.159h-16.317v1.963c0 0.887 0.728 1.616 1.617 1.616h16.436c0.025-0.068 0.053-0.134 0.087-0.2l0.209-0.411c-0.181-0.352-0.333-0.719-0.456-1.097l-0.437-0.143z"></path>
        </symbol>
        <symbol id="icon-offer-4" viewBox="0 0 32 32">
            <path
                d="M18.858 17.148h-2.286c-0.316 0-0.571 0.256-0.571 0.571v2.286c0 0.947 0.767 1.714 1.714 1.714s1.714-0.767 1.714-1.714v-2.286c0-0.316-0.256-0.571-0.571-0.571z"></path>
            <path
                d="M7.429 17.72c-0.006-4.446 2.845-8.393 7.068-9.784s8.861 0.089 11.498 3.668c2.637 3.579 2.677 8.448 0.097 12.069l1.241 1.241c0.095-0.027 0.193-0.041 0.292-0.042 0.271 0.001 0.533 0.099 0.737 0.277h0.271c0.296-0.021 0.522-0.274 0.51-0.571v-20h-29.143v20c-0.013 0.297 0.213 0.549 0.509 0.571h10.104c-0.057-0.054-0.114-0.1-0.171-0.155-1.935-1.925-3.020-4.544-3.013-7.273zM3.833 8.409l-1.714 1.714c-0.224 0.217-0.581 0.213-0.801-0.007s-0.224-0.577-0.007-0.801l1.31-1.31-1.31-1.31c-0.217-0.224-0.213-0.581 0.007-0.801s0.577-0.224 0.801-0.007l1.714 1.714c0.223 0.223 0.223 0.585 0 0.808zM4.572 9.72c0-0.316 0.256-0.571 0.571-0.571h2.286c0.316 0 0.571 0.256 0.571 0.571s-0.256 0.571-0.571 0.571h-2.286c-0.316 0-0.571-0.256-0.571-0.571z"></path>
            <path
                d="M17.715 15.434c-0.316 0-0.571 0.256-0.571 0.571h1.143c0-0.316-0.256-0.571-0.571-0.571z"></path>
            <path
                d="M29.143 0.577c0.013-0.297-0.213-0.549-0.509-0.571h-28.125c-0.296 0.022-0.521 0.275-0.509 0.571v2.857h29.143v-2.857zM1.715 2.291c-0.316 0-0.571-0.256-0.571-0.571s0.256-0.571 0.571-0.571c0.316 0 0.571 0.256 0.571 0.571s-0.256 0.571-0.571 0.571zM4 2.291c-0.316 0-0.571-0.256-0.571-0.571s0.256-0.571 0.571-0.571c0.316 0 0.571 0.256 0.571 0.571s-0.256 0.571-0.571 0.571zM6.286 2.291c-0.316 0-0.571-0.256-0.571-0.571s0.256-0.571 0.571-0.571c0.316 0 0.571 0.256 0.571 0.571s-0.256 0.571-0.571 0.571zM28.404 1.887c0.149 0.143 0.208 0.356 0.156 0.556s-0.208 0.356-0.408 0.408c-0.2 0.052-0.412-0.007-0.556-0.156l-0.167-0.167-0.167 0.167c-0.224 0.217-0.581 0.213-0.801-0.007s-0.223-0.577-0.007-0.801l0.167-0.167-0.167-0.167c-0.217-0.224-0.213-0.581 0.007-0.801s0.577-0.224 0.801-0.007l0.167 0.167 0.167-0.167c0.143-0.149 0.356-0.208 0.556-0.156s0.356 0.208 0.408 0.408c0.052 0.2-0.007 0.412-0.156 0.556l-0.167 0.167 0.167 0.167z"></path>
            <path
                d="M31.665 30.055l-4.041-4.041-1.616 1.616 4.041 4.041c0.452 0.432 1.164 0.432 1.616 0 0.446-0.446 0.446-1.17 0-1.616z"></path>
            <path
                d="M25.372 24.569c-0.127 0.142-0.249 0.286-0.385 0.424s-0.286 0.257-0.425 0.384l1.041 1.042 0.809-0.809-1.041-1.041z"></path>
            <path
                d="M24.179 11.255c-3.084-3.084-7.918-3.56-11.544-1.136s-5.036 7.071-3.367 11.101 5.953 6.319 10.231 5.468c4.278-0.851 7.359-4.606 7.359-8.967 0.003-2.426-0.961-4.752-2.678-6.465zM23.372 23.377c-2.699 2.699-6.928 3.116-10.101 0.995s-4.407-6.187-2.947-9.713c1.46-3.526 5.208-5.53 8.951-4.785s6.439 4.029 6.44 7.846c0.003 2.122-0.84 4.158-2.343 5.657z"></path>
            <path
                d="M22.563 12.871c-2.313-2.313-5.938-2.67-8.658-0.852s-3.777 5.303-2.525 8.326c1.252 3.022 4.465 4.739 7.673 4.101s5.519-3.454 5.519-6.726c0.002-1.819-0.721-3.564-2.009-4.849zM13.675 13.679c1.069-1.075 2.524-1.678 4.040-1.674 0.316 0 0.571 0.256 0.571 0.571s-0.256 0.571-0.571 0.571c-1.213-0.003-2.377 0.479-3.232 1.339-0.224 0.217-0.581 0.213-0.801-0.007s-0.224-0.577-0.007-0.801zM21.715 19.434h-1.143v0.335l0.975 0.975c0.149 0.143 0.208 0.356 0.156 0.556s-0.208 0.356-0.408 0.408c-0.2 0.052-0.412-0.007-0.556-0.156l-0.407-0.407c-0.452 1.043-1.48 1.718-2.617 1.718s-2.165-0.675-2.617-1.718l-0.407 0.407c-0.224 0.217-0.581 0.213-0.801-0.007s-0.224-0.577-0.007-0.801l0.975-0.975v-0.335h-1.143c-0.316 0-0.571-0.256-0.571-0.571s0.256-0.571 0.571-0.571h1.143v-0.335l-0.975-0.975c-0.217-0.224-0.213-0.581 0.007-0.801s0.577-0.224 0.801-0.007l0.519 0.519c0.201-0.267 0.476-0.469 0.791-0.581v-0.105c0-0.947 0.767-1.714 1.714-1.714s1.714 0.767 1.714 1.714v0.105c0.315 0.112 0.59 0.314 0.791 0.581l0.519-0.519c0.224-0.217 0.581-0.213 0.801 0.007s0.223 0.577 0.007 0.801l-0.975 0.976v0.335h1.143c0.316 0 0.571 0.256 0.571 0.571s-0.256 0.571-0.571 0.571z"></path>
        </symbol>
        <symbol id="icon-telegram" viewBox="0 0 36 32">
            <path
                d="M32.827 1.828l-30.338 11.699c-2.070 0.832-2.058 1.987-0.38 2.502l7.789 2.43 18.021-11.37c0.852-0.518 1.631-0.24 0.991 0.329l-14.601 13.179-0.537 8.029c0.787 0 1.134-0.361 1.576-0.787l3.783-3.679 7.869 5.813c1.451 0.799 2.493 0.388 2.854-1.343l5.166-24.346c0.529-2.12-0.809-3.080-2.194-2.454z"></path>
        </symbol>
    </defs>
</svg>
    